<svg xmlns="http://www.w3.org/2000/svg" width="800" height="600" viewBox="0 0 800 600">
  <rect width="800" height="600" fill="#c5d6e0"/>
  <polygon points="0,280 80,200 180,270 280,160 400,250 520,140 640,240 760,170 800,220 800,360 0,360" fill="#6b7f72"/>
  <polygon points="280,160 320,220 230,230" fill="#e8eef3"/>
  <polygon points="520,140 555,200 475,210" fill="#e8eef3"/>
  <rect y="360" width="800" height="240" fill="#4a7d8c"/>
  <path d="M0 360 Q200 340 400 358 T800 348 V600 H0 Z" fill="#3f6f7d" opacity="0.9"/>
  <rect x="80" y="290" width="70" height="90" fill="#8a7a68"/>
  <rect x="170" y="270" width="55" height="110" fill="#6d7d88"/>
  <rect x="245" y="300" width="80" height="80" fill="#c9b89a"/>
  <polygon points="285,230 245,300 325,300" fill="#8a3b2a"/>
  <rect x="290" y="250" width="22" height="50" fill="#8a3b2a"/>
  <rect y="470" width="800" height="130" fill="#e8dcc0"/>
  <path d="M520 400 L620 370 L720 400 L700 400 L700 430 L540 430 L540 400 Z" fill="#d8d4cc"/>
  <rect x="560" y="388" width="28" height="14" fill="#4a7d8c"/>
  <circle cx="700" cy="95" r="32" fill="#f0c35a" opacity="0.9"/>
  <text x="40" y="560" fill="#1a2622" font-family="Georgia, serif" font-size="36">Nanaimo</text>
</svg>
